<?xml version="1.0" encoding="UTF-8"?>
<svg width="10px" height="17px" viewBox="0 0 10 17" version="1.1" xmlns="http://www.w3.org/2000/svg" xmlns:xlink="http://www.w3.org/1999/xlink">
    <!-- Generator: Sketch 48.2 (47327) - http://www.bohemiancoding.com/sketch -->
    <title>Fill 1</title>
    <desc>Created with Sketch.</desc>
    <defs></defs>
    <g id="Program---Desktop-HD" stroke="none" stroke-width="1" fill="none" fill-rule="evenodd" transform="translate(-272.000000, -722.000000)">
        <g id="Group-4" transform="translate(212.000000, 722.000000)" fill="#FFFFFF">
            <path d="M60,8.03540216 L61.7576655,8.03540216 L61.7576655,17 L65.5134795,17 L65.5134795,8.03540216 L67.8566138,8.03540216 L68.5050363,5.32587765 L65.5134795,5.32587765 L65.5134795,4.31610132 C65.5134795,3.65760628 65.6356095,3.21189453 65.8773515,2.98022515 C66.1203525,2.74981484 66.6013183,2.57354466 67.1616057,2.57354466 C67.7294475,2.57354466 68.1852318,2.8719449 68.7581099,3.20182195 L69.4430455,0.652199674 C68.3892016,0.358835728 67.5292549,0 66.4300844,0 C65.3573545,0 64.3186195,0.169974819 63.617316,0.506147237 C62.9160124,0.843578729 62.4098652,1.4403792 62.1504962,1.97674419 C61.8886091,2.51310917 61.7576655,3.16656792 61.7576655,4.25440675 L61.7576655,5.32587765 L60,5.32587765 L60,8.03540216 Z" id="Fill-1"></path>
        </g>
    </g>
</svg>