<?xml version="1.0" encoding="UTF-8"?>
<svg width="28px" height="17px" viewBox="0 0 28 17" version="1.1" xmlns="http://www.w3.org/2000/svg" xmlns:xlink="http://www.w3.org/1999/xlink">
    <!-- Generator: Sketch 48.2 (47327) - http://www.bohemiancoding.com/sketch -->
    <title>logo_google_plus_32px_clr</title>
    <desc>Created with Sketch.</desc>
    <defs></defs>
    <g id="Program---Desktop-HD" stroke="none" stroke-width="1" fill="none" fill-rule="evenodd" transform="translate(-339.000000, -722.000000)">
        <g id="Group-4" transform="translate(212.000000, 722.000000)" fill="#FFFFFF">
            <g id="logo_google_plus_32px_clr" transform="translate(127.165881, 0.000000)">
                <path d="M8.61538462,7.28571429 L8.61538462,10.2 L13.5015385,10.2 C13.3046154,11.4507143 12.0246154,13.8671429 8.61538462,13.8671429 C5.67384615,13.8671429 3.27384615,11.4628571 3.27384615,8.5 C3.27384615,5.53714286 5.67384615,3.13285714 8.61538462,3.13285714 C10.2892308,3.13285714 11.4092308,3.83714286 12.0492308,4.44428571 L14.3876923,2.22214286 C12.8861538,0.837857143 10.9415385,0 8.61538462,0 C3.85230769,0 0,3.80071429 0,8.5 C0,13.1992857 3.85230769,17 8.61538462,17 C13.5876923,17 16.8861538,13.5514286 16.8861538,8.69428571 C16.8861538,8.13571429 16.8246154,7.71071429 16.7507692,7.28571429 L8.61538462,7.28571429 L8.61538462,7.28571429 Z" id="Shape"></path>
                <polyline id="Shape" points="27.0769231 7.28571429 24.6153846 7.28571429 24.6153846 4.85714286 22.1538462 4.85714286 22.1538462 7.28571429 19.6923077 7.28571429 19.6923077 9.71428571 22.1538462 9.71428571 22.1538462 12.1428571 24.6153846 12.1428571 24.6153846 9.71428571 27.0769231 9.71428571"></polyline>
            </g>
        </g>
    </g>
</svg>