<?xml version="1.0" encoding="utf-8"?>
<!-- Generator: Adobe Illustrator 23.0.0, SVG Export Plug-In . SVG Version: 6.00 Build 0)  -->
<svg version="1.1" id="Layer_1" xmlns="http://www.w3.org/2000/svg" xmlns:xlink="http://www.w3.org/1999/xlink" x="0px" y="0px"
	 viewBox="0 0 1000 300" style="enable-background:new 0 0 1000 300;" xml:space="preserve">
<style type="text/css">
	.st0{fill:#FEFEFE;}
	.st1{fill:#413F44;}
	.st2{fill:none;stroke:#000000;stroke-miterlimit:10;}
	.st3{fill:none;}
	.st4{fill:#FFFFFF;}
	.st5{font-family:'BEYNO';}
	.st6{font-size:133px;}
</style>
<path class="st0" d="M65.17,28.08h0.34c-0.09,0.08-0.26,0.25-0.34,0.34V28.08z"/>
<path class="st0" d="M217.12,41.71c4.5,0.4,8.37-3.35,12.86-2.15c3.57,3,6.96,6.2,10.16,9.6l3,2.87c1.91,1.7,3.73,3.51,5.62,5.26
	c1.88,1.37,3.44,3.12,4.57,5.15c-3.82,1.38-7.74,2.47-11.73,3.26l0.24,0.7c-1.21,0.24-2.42,0.49-3.63,0.77
	c-2.14,0.62-4.26,1.31-6.44,1.79c-3.6-3.23-6.9-6.77-10.54-10c-4.55-4.65-9.35-9-13.83-13.75l3.77-1.63l4.05-0.12
	C215.86,42.9,216.51,42.32,217.12,41.71z"/>
<path class="st0" d="M178.53,53.76c2.61-0.33,5.25-1.8,7.9-1.25c6.19,5.61,11.72,11.92,18,17.39c1.52,1.44,2.97,2.95,4.32,4.55
	c-2.69-0.1-8.25-0.52-6.18,4.35l-2.83-1.29l0.23,1l-4.48,0.89l0.18,1.38c-1.75-0.06-3.49-0.16-5.22-0.28l1.69,1.25
	c-4.94,1.09-7.49-3.54-10.71-6.24c-5.07-5.33-10.57-10.23-16.08-15.1c0-0.67,0-2-0.07-2.68c4.49-0.9,8.71-2.88,13.3-3.35
	L178.53,53.76z"/>
<path class="st0" d="M138.53,65.44c1.64-0.06,3.29,0.04,4.91,0.29c7.39,6.5,13.85,14.05,21.39,20.39c0.08,1.2,0.13,2.4,0.18,3.61
	l-2.41-0.35l0.18,1.07c-1.5,0.21-3,0.44-4.46,0.78c-1.53,0.57-3.05,1.15-4.59,1.68l-0.06,0.67l-5,0.1l0.2,1.09l-4,0.09
	c-7.46-7.49-15.29-14.61-23.1-21.73c-0.12-0.39-0.35-1.17-0.46-1.56c1.42-0.42,2.84-0.83,4.28-1.22l-0.09-0.77
	c2.13-0.02,4.25-0.35,6.28-1l-0.18-0.83c2.4-0.07,4.78-0.49,7.07-1.23L138.53,65.44z"/>
<path class="st0" d="M99.09,79.18c0.48,0.74,1.01,1.46,1.58,2.14c7.38,6.85,14.87,13.63,21.6,21.11c-2.18,0.57-4.39,1.07-6.61,1.46
	l0.32,1h-3.52l0.57,0.87c-1.31,0.06-2.78-0.17-3.9,0.72l-2.4,0.21v0.9c-2.47-0.11-5.15,0.84-7.52,0c-8-7-15.06-15-23.4-21.66
	c3.47-7.43,5.62,2.4,9.14-0.91c2-1.62,6.71-0.72,5.88-4.49l1.67,0.22v-1.09C94.67,79.49,96.9,79.32,99.09,79.18z"/>
<path class="st0" d="M239.26,121.65c7.67-0.44,15.36-0.16,23-0.19c-2.65,6.28-7.09,11.57-10.11,17.67c-1.73,2.7-3.39,5.46-5.16,8.13
	l-0.64,2l-2.2,1.11c-6.87,0-13.73,0-20.58,0c0-1,0.06-2.08,0.11-3.12C229.35,139.02,234.34,130.34,239.26,121.65z"/>
<path class="st0" d="M102.06,121.45c7.54,0.08,15.09,0,22.64,0c-0.05,0.45-0.15,1.35-0.21,1.8c-2.65,3.81-5,7.84-7.47,11.73
	c-2.83,4.84-5.4,9.86-8.64,14.45l-2.18,0.94c-6.79,0-13.58,0-20.37,0c0-0.42-0.06-1.26-0.09-1.67c3.7-5.36,6.74-11.14,10.25-16.62
	C98.02,128.58,100.09,125.02,102.06,121.45z"/>
<path class="st0" d="M147.95,121.65c7.69-0.49,15.41-0.12,23.12-0.21c-0.18,0.87-0.53,2.6-0.71,3.46c-1.87,2.64-3.6,5.39-5.17,8.22
	c-3.48,5.41-6.8,10.93-9.85,16.61c-7.55,0.17-15.11,0-22.67,0.12c0.58-1.76,1.45-3.41,2.58-4.88c0.19-0.43,0.57-1.3,0.77-1.73
	c4-6.2,7.31-12.83,11.48-18.92C147.61,123.65,147.84,122.31,147.95,121.65z"/>
<path class="st0" d="M194.04,121.45c7.68,0,15.36-0.13,23,0.1c-4.11,6.44-7.84,13.12-11.9,19.6c-1.73,2.81-3.41,5.66-4.87,8.62
	c-4,0.06-8.12-0.23-12.15,0.34c-3.66-0.35-7.33-0.49-11-0.42c1.37-2.21,2.71-4.43,4.12-6.61c2.68-5.11,6.22-9.73,8.72-15
	C191.25,125.84,192.67,123.66,194.04,121.45z"/>
<path class="st1" d="M250.77,29.78c3.81-0.85,8.45-0.7,11.33,2.3c2.33,2.43,2.88,5.92,4.36,8.85c1.85,4.64,2.78,9.59,4.65,14.23
	c0.3,1.33,0.52,2.68,0.74,4c-1.23,0.17-2.47,0.34-3.69,0.54c-2,2.19-5.4,1.42-8,2.49c-4.31,1.36-8.65,2.6-12.94,4
	c-6.37,1.79-12.68,3.79-19,5.62c-9.95,3.15-20,6.14-30,9.09c-5.32,1.76-10.7,3.37-16.09,4.91c-7.1,2.52-14.46,4.13-21.46,6.94
	c-8.3,1.89-16.28,4.93-24.51,7.09c-1.28,0.47-2.58,0.91-3.86,1.36s-2.72,0.74-4.06,1.16c-1.34,0.42-2.61,0.6-3.91,0.94
	c-15.27,5.31-31,9.09-46.39,14c-0.34,0.55-1,1.64-1.34,2.19c68.16,0.16,136.33-0.36,204.49-0.24c-0.2,10.51-0.11,21,0,31.55H274
	c-0.5,2.71-0.83,5.44-1,8.19c0,18.37,0.06,36.74,0,55.11c0,5.47-5.93,8.44-10.7,8.59c-34.92,0.08-69.84-0.15-104.75,0.11
	c-7.26,6.4-13.48,13.78-20.58,20.16c-6.12,5.28-11.75,11.09-17.47,16.79c0.06-11.86,0.19-23.73,0-35.59l-2.16-1.41
	c-9.48,0-19,0-28.45-0.14c-1.64-1.1-3.31-2.18-5-3.23c-1.87-2.52-4.71-4.87-4.56-8.29c0-14,0.02-28,0.07-42
	c0-5.93,0.47-11.9-0.43-17.78h-5.44c-0.7-11.73,0.14-23.57-0.22-35.33c-0.61-2-1.74-3.84-2.22-5.89c-0.45-1.58-0.51-3.41-2-4.45h1.7
	c-0.72-1.79-1.4-3.6-2.06-5.41l-0.06-2.65h-1.14c-0.09-2.88-0.12-5.76,0-8.64c2.32-2.2,4.66-4.66,7.82-5.58
	c2.24-0.59,4.37-1.52,6.32-2.78v1.35c1.59-1.35,3.48-2.3,5.5-2.8c2.53-0.95,5.12-1.73,7.75-2.35c3-1.19,6.11-2,9.19-3
	c1.28-0.32,2.55-0.66,3.83-1c2.71-0.94,5.44-1.81,8.21-2.56c2.77-0.75,5.3-1.6,8-2.39c3.1-0.82,6.14-1.9,9.28-2.59
	c1.23-0.47,2.46-1,3.68-1.44c6.41-1.67,12.7-3.8,19.07-5.63c3.41-2.29,7.91-1.76,11.67-3.27c1.63-0.97,3.46-1.54,5.35-1.66
	c1.3-0.47,2.6-0.94,3.9-1.43c5.75-1.46,11.4-3.28,17.06-5.09l2-0.44c12.62-4,25.36-7.55,38-11.52
	C239.67,33.09,245.24,31.58,250.77,29.78z M217.12,41.71c-0.61,0.61-1.26,1.19-1.9,1.77l-4.05,0.1l-3.77,1.64
	c4.48,4.71,9.28,9.1,13.83,13.75c3.64,3.2,6.94,6.74,10.54,10c2.18-0.48,4.3-1.17,6.44-1.79c1.21-0.28,2.42-0.53,3.63-0.77
	l-0.24-0.7c3.99-0.79,7.91-1.88,11.73-3.26c-1.13-2.03-2.69-3.78-4.57-5.15c-1.89-1.75-3.71-3.56-5.62-5.26l-3-2.87
	c-3.2-3.39-6.59-6.59-10.16-9.59C225.49,38.36,221.67,42.11,217.12,41.71z M178.53,53.71v0.62c-4.59,0.47-8.81,2.45-13.3,3.35
	c0,0.67,0.05,2,0.07,2.68c5.51,4.87,11,9.77,16.08,15.1c3.22,2.7,5.77,7.33,10.71,6.24l-1.69-1.25c1.73,0.12,3.47,0.22,5.22,0.28
	l-0.12-1.33l4.48-0.89l-0.23-1l2.92,1.29c-2.07-4.87,3.49-4.45,6.18-4.35c-1.35-1.6-2.8-3.11-4.32-4.55
	c-6.33-5.47-11.86-11.78-18-17.39c-2.75-0.55-5.39,0.92-8,1.25V53.71z M138.53,65.39l0.14,1.13c-2.29,0.73-4.66,1.12-7.06,1.18
	l0.18,0.83c-2.03,0.66-4.15,1.02-6.29,1.05l0.12,0.72c-1.44,0.39-2.86,0.8-4.28,1.22c0.11,0.39,0.34,1.17,0.46,1.56
	c7.81,7.12,15.64,14.24,23.1,21.73l4-0.09l-0.23-1.06l5-0.1l0.09-0.65c1.54-0.53,3.06-1.11,4.59-1.68c1.47-0.34,3-0.57,4.46-0.78
	l-0.18-1.07l2.41,0.35c0-1.21-0.1-2.41-0.18-3.61c-7.54-6.34-14-13.89-21.39-20.39c-1.63-0.25-3.29-0.35-4.94-0.29V65.39z
	 M99.09,79.18c-2.19,0.14-4.38,0.31-6.57,0.42v1.09l-1.67-0.22c0.83,3.77-3.92,2.87-5.88,4.49c-3.52,3.31-5.67-6.52-9.14,0.91
	c8.36,6.62,15.41,14.71,23.42,21.71c2.37,0.88,5.05-0.07,7.52,0v-0.9l2.4-0.21c1.12-0.89,2.59-0.66,3.9-0.72l-0.57-0.87h3.52
	l-0.32-1c2.22-0.39,4.43-0.89,6.61-1.46c-6.76-7.47-14.25-14.25-21.64-21.1C100.1,80.64,99.57,79.93,99.09,79.18z M239.26,121.65
	c-4.92,8.69-9.91,17.37-15.54,25.62c-0.05,1-0.08,2.07-0.11,3.12c6.85,0,13.71,0,20.58,0l2.2-1.11l0.64-2
	c1.77-2.67,3.43-5.43,5.16-8.13c3-6.1,7.46-11.39,10.11-17.67C254.67,121.49,246.93,121.21,239.26,121.65z M102.06,121.45
	c-2,3.57-4,7.09-6.07,10.64c-3.51,5.48-6.55,11.26-10.25,16.62c0,0.41,0.07,1.25,0.09,1.67c6.79,0,13.58,0,20.37,0l2.18-0.94
	c3.24-4.59,5.81-9.61,8.64-14.45c2.52-3.89,4.82-7.92,7.47-11.73c0.06-0.45,0.16-1.35,0.21-1.8
	C117.15,121.44,109.6,121.58,102.06,121.45z M147.95,121.65c-0.11,0.66-0.34,2-0.45,2.67c-4.17,6.09-7.49,12.72-11.48,18.92
	c-0.2,0.43-0.58,1.3-0.77,1.73c-1.13,1.47-2,3.12-2.58,4.88c7.56-0.14,15.12,0,22.67-0.12c3-5.68,6.37-11.2,9.85-16.61
	c1.57-2.83,3.3-5.58,5.17-8.22c0.18-0.86,0.53-2.59,0.71-3.46C163.36,121.58,155.67,121.16,147.95,121.65z M194.04,121.45
	c-1.38,2.21-2.79,4.39-4,6.68c-2.5,5.22-6,9.84-8.72,15c-1.41,2.18-2.75,4.4-4.12,6.61c3.67-0.07,7.34,0.07,11,0.42
	c4-0.57,8.1-0.28,12.15-0.34c1.46-3,3.14-5.81,4.87-8.62c4.06-6.48,7.79-13.16,11.9-19.6C209.4,121.32,201.72,121.45,194.04,121.45z
	"/>
<polygon class="st1" points="75.12,88.58 242.95,38.2 238.39,33.5 76.55,82.99 71.2,87.9 "/>
<polygon class="st1" points="94.86,107.91 257.76,58.79 259.43,62.45 97.29,111.56 "/>
<path class="st1" d="M78.86,111.58"/>
<path class="st1" d="M73.24,86.03"/>
<line class="st2" x1="271.85" y1="59.19" x2="261.06" y2="61.93"/>
<line class="st3" x1="259.71" y1="62.37" x2="268.08" y2="60.15"/>
<polygon class="st1" points="259.59,62.41 260.18,62.23 272.37,58.54 270.98,54.83 267.44,56.52 "/>
<polygon class="st4" points="260.82,62.86 272.63,59.64 272.1,58.62 260.46,62.14 "/>
<path class="st1" d="M67.44,92.84c1.37,7.85,3.33,15.59,5.87,23.14l2.54-29.1C75.85,86.88,65.73,81.77,67.44,92.84z"/>
<path class="st4" d="M205.9,43.44L71.09,85.71c0,0-5-0.23-3.65,7.13c1.35,7.36,5.89,23.84,5.89,23.84l-4.51,2.37l-3.31-30.47
	l17.78-29.79L205.9,43.44z"/>
<polygon class="st4" points="200.56,76.04 206.96,74.11 205.33,72.96 "/>
<polygon class="st1" points="243.14,52.03 248.76,57.29 252.07,60.51 254.13,56.43 "/>
<polygon class="st4" points="102.06,121.45 84.56,150.39 107.93,150.39 125.54,121.45 "/>
<polygon class="st4" points="147.95,121.65 131.88,150.39 155.2,150.11 172.22,121.65 "/>
<polygon class="st1" points="171.54,120.33 147.95,121.65 172.22,121.65 "/>
<polygon class="st4" points="194.04,121.45 176.65,150.11 200.22,150.39 217.08,121.55 "/>
<polygon class="st4" points="239.26,121.65 221.58,150.96 247.2,150.39 263.29,121.65 "/>
<polygon class="st1" points="254.35,120.33 239.26,121.65 263.29,121.65 "/>
<polygon class="st4" points="77.92,117.34 78.78,117.08 272.1,58.62 164.22,99.13 "/>
<rect x="361.7" y="126.83" class="st3" width="627.59" height="191.72"/>
<text transform="matrix(1 0 0 1 361.7004 222.0542)" class="st1 st5 st6">DOUBAN</text>
</svg>
