<?xml version="1.0" encoding="UTF-8"?>
<svg width="23px" height="17px" viewBox="0 0 23 17" version="1.1" xmlns="http://www.w3.org/2000/svg" xmlns:xlink="http://www.w3.org/1999/xlink">
    <!-- Generator: Sketch 48.2 (47327) - http://www.bohemiancoding.com/sketch -->
    <title>Fill 1</title>
    <desc>Created with Sketch.</desc>
    <defs></defs>
    <g id="Program---Desktop-HD" stroke="none" stroke-width="1" fill="none" fill-rule="evenodd" transform="translate(-299.000000, -722.000000)">
        <g id="Group-4" transform="translate(212.000000, 722.000000)" fill="#FFFFFF">
            <path d="M87.2051902,12.7304609 C87.2051902,12.7304609 90.2589337,13.9607111 91.528085,13.9607111 C91.528085,13.9607111 93.9448215,14.612306 95.5413912,12.5148835 C95.5413912,12.5148835 95.9336449,11.9410909 95.4019953,11.6622991 C95.4019953,11.6622991 90.1973402,10.0349326 90.5669015,9.12885902 C90.5669015,9.12885902 90.5425882,8.61990177 91.2120129,8.73498446 C91.2120129,8.73498446 91.9657234,8.07366422 91.5961621,7.84187796 C91.5961621,7.84187796 91.0191278,7.33129984 91.4810794,7.28591511 C91.4810794,7.28591511 92.6578405,7.36047573 93.0954789,7.4771793 C93.0954789,7.4771793 93.3953422,7.36695926 93.1181712,7.15786536 C92.8426211,6.95039235 92.3806695,6.48033629 92.4730598,6.38794597 C92.4730598,6.38794597 92.6351481,5.99407141 93.3726498,6.318248 C93.3726498,6.318248 93.6028152,6.27286328 93.3953422,6.03945613 C93.3953422,6.03945613 92.7729231,5.66989482 93.0727865,5.36678971 C93.0727865,5.36678971 94.0080359,4.75247508 96.154085,7.37506368 C96.154085,7.37506368 96.5463386,7.90833416 96.5933442,7.39775604 C96.5933442,7.39775604 98.147771,0.672712719 100.66176,0.23183256 C100.66176,0.23183256 101.46896,0.393920854 101.631048,0.137821349 C101.631048,0.137821349 102.329649,-0.139349634 102.561435,0.0924366267 C102.561435,0.0924366267 102.791601,0.440926459 103.068772,0.23183256 C103.068772,0.23183256 104.060752,-0.163662878 103.759268,0.486311181 C103.759268,0.486311181 102.738111,1.46856624 102.392863,1.4912586 C102.045994,1.51395097 102.115692,1.83974844 102.415556,1.88675404 C102.415556,1.88675404 106.636335,2.25955712 106.636335,5.3684106 C106.636335,5.3684106 106.879467,6.10753322 107.663975,5.34085559 C107.663975,5.34085559 108.850461,4.58228237 109.151945,4.54500206 C109.151945,4.54500206 109.474501,4.33590816 109.427495,4.82379393 C109.427495,4.82379393 108.574911,6.31014358 107.698013,6.72833138 C107.698013,6.72833138 107.167985,7.4009978 107.9298,7.26160187 C107.9298,7.26160187 108.668922,7.10761799 109.015791,6.89852409 C109.015791,6.89852409 109.915381,6.45926482 109.498814,7.24701392 C109.498814,7.24701392 107.605623,8.48374761 107.190677,8.48374761 C107.190677,8.48374761 106.913506,8.55344557 106.913506,8.8079242 C106.913506,8.8079242 106.659027,16.9868995 96.0941123,16.9868995 C96.0941123,16.9868995 90.8035504,17.4180544 87.3429653,13.3334294 C87.3429653,13.3334294 86.6735406,12.6137573 87.2051902,12.7304609" id="Fill-1"></path>
        </g>
    </g>
</svg>